<svg xmlns="http://www.w3.org/2000/svg" xmlns:xlink="http://www.w3.org/1999/xlink" width="25" height="25" viewBox="0 0 25 25"><defs><clipPath id="a"><rect width="25" height="25" fill="#fff" stroke="#707070" stroke-width="1"/></clipPath></defs><rect width="25" height="25" fill="none"/><g clip-path="url(#a)"><path d="M21.145,8.65a.378.378,0,0,0-.113-.273l-.749-.75.532-.917a.39.39,0,0,0-.144-.531l-.917-.532.278-1.019a.394.394,0,0,0-.277-.481l-1.023-.274V2.813a.392.392,0,0,0-.39-.391H17.283L17.011,1.4a.393.393,0,0,0-.183-.234.369.369,0,0,0-.293-.039L15.511,1.4,14.98.478a.385.385,0,0,0-.531-.145l-.918.531L12.782.113A.394.394,0,0,0,12.508,0a.4.4,0,0,0-.277.113l-.75.749L10.567.331a.4.4,0,0,0-.3-.039.39.39,0,0,0-.238.183L9.5,1.392,8.481,1.118A.392.392,0,0,0,8,1.391L7.726,2.414H6.667a.392.392,0,0,0-.391.39V3.862l-1.024.273a.393.393,0,0,0-.234.183.376.376,0,0,0-.039.3l.273,1.02-.918.53a.391.391,0,0,0-.141.531l.527.918-.747.749a.381.381,0,0,0-.117.273.39.39,0,0,0,.117.277l.745.75-.528.914a.378.378,0,0,0-.039.3.371.371,0,0,0,.179.238l.917.532-.274,1.019a.376.376,0,0,0,.039.3.393.393,0,0,0,.234.184l1.023.274v1.058a.392.392,0,0,0,.39.391H7.717l.273,1.024a.392.392,0,0,0,.48.274l1.024-.273.527.918a.39.39,0,0,0,.535.141l.914-.527.749.75a.4.4,0,0,0,.277.113.394.394,0,0,0,.273-.113l.75-.749.917.528a.385.385,0,0,0,.531-.14L15.5,15.9l1.023.274a.369.369,0,0,0,.293-.039A.393.393,0,0,0,17,15.9l.274-1.023h1.058a.392.392,0,0,0,.391-.39V13.429l1.024-.273a.4.4,0,0,0,.278-.48l-.277-1.02.918-.531a.4.4,0,0,0,.145-.535l-.531-.914.75-.749A.386.386,0,0,0,21.145,8.65ZM12.5,14.077a5.432,5.432,0,1,1,5.435-5.428A5.438,5.438,0,0,1,12.5,14.077Z" fill="#5bc0be"/><path d="M20.737,22.663l-3.018-6.469a1.179,1.179,0,0,1-.519.62,1.123,1.123,0,0,1-.575.154,1.156,1.156,0,0,1-.314-.044l-.435-.116-.232.4a1.167,1.167,0,0,1-1.607.42l-.389-.224-.327.327a1.154,1.154,0,0,1-.291.206l3.19,6.837a.4.4,0,0,0,.34.227h.016a.388.388,0,0,0,.34-.2l1.138-2,2.261.408a.389.389,0,0,0,.422-.55Z" fill="#84203f"/><path d="M11.681,17.744,11.34,17.4l-.395.228a1.172,1.172,0,0,1-1.6-.424l-.231-.4-.443.118a1.141,1.141,0,0,1-.306.041,1.176,1.176,0,0,1-1.094-.769L4.243,22.651a.4.4,0,0,0,.043.406.392.392,0,0,0,.379.145l2.266-.4,1.135,2a.383.383,0,0,0,.34.2H8.42a.394.394,0,0,0,.336-.226l3.2-6.832A1.2,1.2,0,0,1,11.681,17.744Z" fill="#84203f"/><path d="M12.5,3.995a4.65,4.65,0,1,0,4.647,4.654A4.656,4.656,0,0,0,12.5,3.995Z" fill="#5bc0be"/></g></svg>