<svg xmlns="http://www.w3.org/2000/svg" width="28" height="23" viewBox="0 0 28 23"><g transform="translate(-367 -22)"><path d="M0,22V19.25c0-3.026,4.95-5.5,11-5.5s11,2.475,11,5.5V22ZM5.5,5.5A5.5,5.5,0,1,1,11,11,5.5,5.5,0,0,1,5.5,5.5Z" transform="translate(373 22)" fill="#5bc0be"/><g transform="translate(368 24)" fill="#5bc0be"><path d="M 20.5 20.5000171661377 L 20 20.5000171661377 L 0 20.5000171661377 L -0.5 20.5000171661377 L -0.5 20.0000171661377 L -0.5 17.50031852722168 C -0.5 15.97077751159668 0.6413699984550476 14.55768775939941 2.713860034942627 13.52135753631592 C 4.676149845123291 12.54012775421143 7.263750076293945 11.99973773956299 10 11.99973773956299 C 12.73624992370605 11.99973773956299 15.32384967803955 12.54012775421143 17.28614044189453 13.52135753631592 C 19.35862922668457 14.55768775939941 20.5 15.97077751159668 20.5 17.50031852722168 L 20.5 20.0000171661377 L 20.5 20.5000171661377 Z M 10 10.50003719329834 C 6.96697998046875 10.50003719329834 4.49944019317627 8.032998085021973 4.49944019317627 5.000587463378906 C 4.49944019317627 1.967547655105591 6.96697998046875 -0.500002384185791 10 -0.500002384185791 C 13.03240013122559 -0.500002384185791 15.49944019317627 1.967547655105591 15.49944019317627 5.000587463378906 C 15.49944019317627 8.032998085021973 13.03240013122559 10.50003719329834 10 10.50003719329834 Z" stroke="none"/><path d="M 20 20.0000171661377 L 20 17.50031852722168 C 20 14.74973773956299 15.50006008148193 12.49973773956299 10 12.49973773956299 C 4.499939918518066 12.49973773956299 0 14.74973773956299 0 17.50031852722168 L 0 20.0000171661377 L 20 20.0000171661377 M 10 10.00003719329834 C 12.76072025299072 10.00003719329834 14.99944019317627 7.761297702789307 14.99944019317627 5.000587463378906 C 14.99944019317627 2.2387375831604 12.76072025299072 -2.370605443502427e-06 10 -2.370605443502427e-06 C 7.238160133361816 -2.370605443502427e-06 4.99944019317627 2.2387375831604 4.99944019317627 5.000587463378906 C 4.99944019317627 7.761297702789307 7.238160133361816 10.00003719329834 10 10.00003719329834 M 21 21.0000171661377 L 20 21.0000171661377 L 0 21.0000171661377 L -1 21.0000171661377 L -1 20.0000171661377 L -1 17.50031852722168 C -1 15.77150726318359 0.2395199984312057 14.19959735870361 2.490230083465576 13.07414722442627 C 4.520609855651855 12.05887794494629 7.187630176544189 11.49973773956299 10 11.49973773956299 C 12.81237030029297 11.49973773956299 15.47939014434814 12.05887794494629 17.50976943969727 13.07414722442627 C 19.7604808807373 14.19959735870361 21 15.77150726318359 21 17.50031852722168 L 21 20.0000171661377 L 21 21.0000171661377 Z M 10 11.00003719329834 C 6.691279888153076 11.00003719329834 3.99943995475769 8.308697700500488 3.99943995475769 5.000587463378906 C 3.99943995475769 1.691847681999207 6.691279888153076 -1.000002384185791 10 -1.000002384185791 C 13.3080997467041 -1.000002384185791 15.99944019317627 1.691847681999207 15.99944019317627 5.000587463378906 C 15.99944019317627 8.308697700500488 13.3080997467041 11.00003719329834 10 11.00003719329834 Z" stroke="none" fill="#051e3e"/></g></g></svg>