<svg xmlns="http://www.w3.org/2000/svg" xmlns:xlink="http://www.w3.org/1999/xlink" width="25" height="25" viewBox="0 0 25 25"><defs><clipPath id="a"><rect width="25" height="25" fill="#fff" stroke="#707070" stroke-width="1"/></clipPath></defs><rect width="25" height="25" fill="none"/><g transform="matrix(-1, 0, 0, 1, 25, 0)" clip-path="url(#a)"><path d="M5.366,4.642A5.371,5.371,0,0,0,.646,7.458H13.276a6.884,6.884,0,0,1,2.1-2.816Z" fill="#5bc0be"/><path d="M9.615,13.242v2.035H3.169V13.242H0v2.816H12.784V13.242Z" fill="#5bc0be"/><rect width="12.784" height="2.816" transform="translate(0 17.542)" fill="#5bc0be"/><path d="M.106,8.942A5.373,5.373,0,0,0,0,10.008v1.75H3.169V9.723H9.615v2.035h3.169v-1.75a6.873,6.873,0,0,1,.083-1.066Z" fill="#5bc0be"/><rect width="10.732" height="7.116" transform="translate(14.268 13.242)" fill="#5bc0be"/><path d="M19.634,4.642a5.372,5.372,0,0,0-5.366,5.366v1.75H25v-1.75A5.372,5.372,0,0,0,19.634,4.642Zm2.578,5.366A2.581,2.581,0,0,0,19.634,7.43V5.945A4.067,4.067,0,0,1,23.7,10.008Z" fill="#5bc0be"/><path d="M4.653,11.207v2.586H8.131V11.207Zm2.481,2.037H5.65V11.756H7.134Z" fill="#84203f"/></g></svg>