<svg xmlns="http://www.w3.org/2000/svg" xmlns:xlink="http://www.w3.org/1999/xlink" width="25" height="25" viewBox="0 0 25 25"><defs><clipPath id="a"><rect width="25" height="25" fill="#fff" stroke="#707070" stroke-width="1"/></clipPath></defs><rect width="25" height="25" fill="none"/><g clip-path="url(#a)"><rect width="25" height="25" fill="none"/><path d="M6.25,17.708v-.521H2.344A2.347,2.347,0,0,1,0,14.844v-.4a2.648,2.648,0,0,1,1.474-2.384,1.3,1.3,0,0,0,.714-1.049L2.652,5.9a6.484,6.484,0,0,1,12.917,0l.465,5.115a1.312,1.312,0,0,0,.715,1.047,2.653,2.653,0,0,1,1.477,2.385v.4a2.346,2.346,0,0,1-2.344,2.344h-3.9v.522a2.865,2.865,0,1,1-5.729,0Zm1.562,0a1.3,1.3,0,1,0,2.6,0v-.521h-2.6Z" transform="translate(3.385 2.344)" fill="#5bc0be"/><path d="M6.25,17.708v-.521c-5.2,0,10.925,0,5.729,0v.522a2.865,2.865,0,1,1-5.729,0Zm1.562,0a1.3,1.3,0,1,0,2.6,0v-.521h-2.6Z" transform="translate(3.385 2.344)" fill="#84203f"/></g></svg>