<svg xmlns="http://www.w3.org/2000/svg" xmlns:xlink="http://www.w3.org/1999/xlink" width="25" height="25" viewBox="0 0 25 25"><defs><clipPath id="a"><rect width="25" height="25" fill="#fff" stroke="#707070" stroke-width="1"/></clipPath></defs><rect width="25" height="25" fill="none"/><g clip-path="url(#a)"><g transform="translate(0 0)"><path d="M22.629,9,6.764,7.518a1.378,1.378,0,0,0-.251-.005L5.879,4.441a.867.867,0,0,0-.056-.174.893.893,0,0,0-.573-.527L2.223,2.849a.883.883,0,1,0-.5,1.694l2.524.742L7.286,19.917a.88.88,0,0,0,.875.763l13.054-.005a.881.881,0,0,0,0-1.761l-12.332.005L8.464,16.9H21.446a1.392,1.392,0,0,0,1.392-1.07l1.049-5.288A1.342,1.342,0,0,0,22.629,9Z" fill="#5bc0be"/><circle cx="1.761" cy="1.761" r="1.761" transform="translate(8.909 21.478)" fill="#5bc0be"/><path d="M1.761,0A1.761,1.761,0,1,1,0,1.761,1.761,1.761,0,0,1,1.761,0Z" transform="translate(17.325 21.478)" fill="#84203f"/><path d="M6.513,7.513,5.879,4.441a.867.867,0,0,0-.056-.174.893.893,0,0,0-.573-.527L2.223,2.849a.883.883,0,1,0-.5,1.694l2.524.742L7.286,19.917a.88.88,0,0,0,.875.763l13.054-.005a.881.881,0,0,0,0-1.761l-12.332.005L8.464,16.9S6.6,7.508,6.513,7.513Z" fill="#84203f"/><circle cx="1.761" cy="1.761" r="1.761" transform="translate(8.909 21.478)" fill="#84203f"/></g></g></svg>