<svg xmlns="http://www.w3.org/2000/svg" xmlns:xlink="http://www.w3.org/1999/xlink" width="25" height="25" viewBox="0 0 25 25"><defs><clipPath id="a"><rect width="25" height="25" fill="#fff" stroke="#707070" stroke-width="1"/></clipPath></defs><rect width="25" height="25" fill="none"/><g clip-path="url(#a)"><g transform="translate(0)"><path d="M12.5,6.893A5.607,5.607,0,1,0,18.107,12.5,5.613,5.613,0,0,0,12.5,6.893Zm0,9.515A3.908,3.908,0,1,1,16.408,12.5,3.912,3.912,0,0,1,12.5,16.408Z" fill="#5bc0be"/><path d="M12.5,9.548A2.952,2.952,0,1,0,15.452,12.5,2.955,2.955,0,0,0,12.5,9.548Zm0,4.205A1.253,1.253,0,1,1,13.753,12.5,1.255,1.255,0,0,1,12.5,13.753Z" fill="#84203f"/><path d="M24.309,15.347l-1.533-.885a10.546,10.546,0,0,0,0-3.925l1.533-.885a.85.85,0,0,0,.311-1.161L22.031,4.008A.85.85,0,0,0,20.87,3.7l-1.535.886a10.492,10.492,0,0,0-3.4-1.964V.85a.85.85,0,0,0-.85-.85H9.911a.85.85,0,0,0-.85.85v1.77a10.491,10.491,0,0,0-3.4,1.964L4.13,3.7a.849.849,0,0,0-1.161.311L.38,8.492A.85.85,0,0,0,.691,9.653l1.533.885a10.546,10.546,0,0,0,0,3.925l-1.533.885A.85.85,0,0,0,.38,16.508l2.589,4.484A.849.849,0,0,0,4.13,21.3l1.535-.886a10.492,10.492,0,0,0,3.4,1.964v1.77a.85.85,0,0,0,.85.85h5.178a.85.85,0,0,0,.85-.85v-1.77a10.491,10.491,0,0,0,3.4-1.964l1.535.886a.85.85,0,0,0,1.161-.311l2.589-4.484a.85.85,0,0,0-.311-1.161Zm-3.32-5.024a8.83,8.83,0,0,1,0,4.353.849.849,0,0,0,.4.946l1.337.772-1.739,3.013-1.339-.773a.85.85,0,0,0-1.019.128,8.775,8.775,0,0,1-3.766,2.177.849.849,0,0,0-.621.818V23.3H10.76V21.757a.849.849,0,0,0-.621-.818,8.774,8.774,0,0,1-3.766-2.177.85.85,0,0,0-1.019-.128l-1.339.773L2.277,16.394l1.337-.772a.849.849,0,0,0,.4-.946,8.83,8.83,0,0,1,0-4.353.849.849,0,0,0-.4-.946L2.277,8.606,4.016,5.593l1.339.773a.849.849,0,0,0,1.019-.128,8.775,8.775,0,0,1,3.766-2.177.849.849,0,0,0,.621-.818V1.7h3.479V3.242a.849.849,0,0,0,.621.818,8.774,8.774,0,0,1,3.766,2.177.849.849,0,0,0,1.019.128l1.339-.773,1.739,3.013-1.337.772A.85.85,0,0,0,20.988,10.324Z" fill="#5bc0be"/></g></g></svg>