<svg xmlns="http://www.w3.org/2000/svg" xmlns:xlink="http://www.w3.org/1999/xlink" width="25" height="25" viewBox="0 0 25 25"><defs><clipPath id="a"><rect width="25" height="25" fill="#fff" stroke="#707070" stroke-width="1"/></clipPath></defs><rect width="25" height="25" fill="none"/><g clip-path="url(#a)"><rect width="4.167" height="11.303" transform="translate(4.122 11.702)" fill="#6fffe9"/><rect width="3.945" height="7.536" transform="translate(8.289 15.47)" fill="#851e3e"/><path d="M0,0H3.945V18.839H0Z" transform="translate(14.362 4.167)" fill="#6fffe9"/><rect width="4.167" height="15.071" transform="translate(18.307 7.935)" fill="#851e3e"/><path d="M24.6,22.606H2.394V.4a.4.4,0,1,0-.8,0V3.768H.4a.4.4,0,1,0,0,.8H1.6v2.97H.4a.4.4,0,0,0,0,.8H1.6V11.3H.4a.4.4,0,0,0,0,.8H1.6v2.97H.4a.4.4,0,0,0,0,.8H1.6v2.97H.4a.4.4,0,0,0,0,.8H1.6v3.369a.4.4,0,0,0,.4.4h5.9v1.2a.4.4,0,1,0,.8,0V23.4h9.22v1.2a.4.4,0,0,0,.8,0V23.4h5.9a.4.4,0,1,0,0-.8Z" fill="#5bc0be"/></g></svg>